<?xml version="1.0" encoding="UTF-8" standalone="no"?>
<!DOCTYPE svg PUBLIC "-//W3C//DTD SVG 1.1//EN" "http://www.w3.org/Graphics/SVG/1.1/DTD/svg11.dtd">
<svg width="100%" height="100%" viewBox="0 0 50 50" version="1.1" xmlns="http://www.w3.org/2000/svg" xmlns:xlink="http://www.w3.org/1999/xlink" xml:space="preserve" style="fill-rule:evenodd;clip-rule:evenodd;stroke-linejoin:round;stroke-miterlimit:1.41421;">
    <path d="M39.906,2C37.311,2 36.183,6.353 37.875,13.438C36.56,13.864 35.462,14.662 34.688,15.688C33.525,17.227 33,19.202 33,21.188C33,24.006 32.706,26.914 32,29.5C32,21.246 25.109,15 17,15C8.891,15 1.785,21.247 2,29.531C2.175,34.17 4.308,38.391 7.688,41.125C5.958,41.215 4.324,41.31 3.063,41.469C2.357,41.558 1.765,41.659 1.25,41.844C0.993,41.936 0.747,42.04 0.5,42.25C0.253,42.46 0,42.873 0,43.313C0,43.94 0.354,44.411 0.75,44.75C1.146,45.089 1.638,45.351 2.219,45.594C3.38,46.079 4.95,46.492 6.938,46.844C10.912,47.547 16.492,48 23.188,48C33.076,48 38.48,44.346 41.188,39.719C43.776,35.295 43.956,30.223 43.969,26.656C46.227,25.392 48,23.058 48,20.313C48,17.19 45.854,14.754 43.094,13.688C45.841,4.42 47.654,9.804 49.688,7.094C50.388,6.194 49.913,4.913 48.813,4.313C46.415,3.066 43.537,6.23 41.719,13.281C41.151,13.164 40.585,13.094 40,13.094C39.714,13.094 39.429,13.124 39.156,13.156C37.285,3.569 41.417,7.397 42,4.094C42.2,2.894 41.206,2 39.906,2ZM40,15.094C43.119,15.094 46,17.342 46,20.313C46,22.333 44.455,24.341 42.594,25.188C42.236,25.347 42.003,25.702 42,26.094C42,29.62 41.837,34.671 39.469,38.719C37.101,42.766 32.599,46 23.188,46C16.583,46 11.082,45.547 7.281,44.875C5.381,44.539 3.892,44.136 2.969,43.75C2.806,43.682 2.782,43.628 2.656,43.563C2.885,43.517 3.01,43.476 3.313,43.438C4.584,43.277 6.411,43.194 8.375,43.094C10.339,42.994 12.463,42.88 14.375,42.656C16.276,42.433 17.947,42.129 19.219,41.5C19.225,41.497 19.243,41.503 19.25,41.5C19.762,41.257 20.331,40.873 20.938,40.375C20.949,40.376 20.958,40.374 20.969,40.375C23.854,40.528 26.251,39.864 28.188,38.656C28.215,38.639 28.254,38.642 28.281,38.625C28.41,38.576 28.527,38.502 28.625,38.406C28.637,38.398 28.644,38.383 28.656,38.375C28.666,38.364 28.678,38.355 28.688,38.344C30.123,37.335 31.28,36.004 32.156,34.469C34.311,30.695 35,25.791 35,21.188C35,19.573 35.475,18.016 36.313,16.906C37.15,15.796 38.292,15.094 40,15.094ZM17,17C24.091,17 30,22.354 30,29.5C30,32.138 28.824,35.075 27.281,36.875C26.076,37.66 24.651,38.164 22.906,38.313C24.068,36.746 25,34.646 25,32.094C25,28.746 23.715,26.398 22,24.969C20.285,23.54 18.22,23 16.594,23C13.064,23 11,25.5 11,28C11,29.217 11.387,30.465 12.188,31.469C12.988,32.473 14.269,33.188 15.813,33.188C15.817,33.188 15.822,33.188 15.827,33.188C16.375,33.188 16.827,32.736 16.827,32.188C16.827,31.639 16.375,31.187 15.827,31.187C15.822,31.187 15.817,31.187 15.812,31.188C14.856,31.188 14.225,30.815 13.75,30.219C13.275,29.623 13,28.783 13,28C13,26.5 13.924,25 16.594,25C17.768,25 19.434,25.429 20.719,26.5C22.004,27.571 23,29.241 23,32.094C23,34.196 22.234,35.918 21.25,37.219C20.266,38.52 19.028,39.38 18.375,39.688C18.364,39.698 18.354,39.708 18.344,39.719C17.518,40.132 15.944,40.474 14.125,40.688C13.149,40.802 12.095,40.873 11.031,40.938C11.021,40.937 11.01,40.937 11,40.938C10.99,40.927 10.979,40.916 10.969,40.906C6.905,38.782 4.187,34.427 4,29.469C3.815,22.353 9.909,17 17,17Z" style="fill:white;fill-rule:nonzero;"/>
</svg>
